<svg width="20" height="20" viewBox="0 0 20 20" fill="none" xmlns="http://www.w3.org/2000/svg">
<g id="fluent:ios-arrow-24-filled">
<path id="Vector" d="M13.1058 3.07248C13.181 2.99292 13.2398 2.89934 13.2788 2.79706C13.3178 2.69479 13.3363 2.58583 13.3332 2.47641C13.3301 2.367 13.3055 2.25926 13.2608 2.15935C13.216 2.05945 13.1521 1.96933 13.0725 1.89415C12.9929 1.81897 12.8993 1.76019 12.7971 1.72118C12.6948 1.68217 12.5858 1.66368 12.4764 1.66678C12.367 1.66987 12.2593 1.69449 12.1594 1.73922C12.0595 1.78395 11.9693 1.84792 11.8942 1.92748L4.81083 9.42748C4.66455 9.58221 4.58304 9.78706 4.58304 9.99998C4.58304 10.2129 4.66455 10.4178 4.81083 10.5725L11.8942 18.0733C11.9688 18.1546 12.0589 18.2203 12.1592 18.2665C12.2595 18.3126 12.3679 18.3384 12.4783 18.3424C12.5886 18.3463 12.6986 18.3282 12.8019 18.2893C12.9052 18.2503 12.9997 18.1912 13.08 18.1154C13.1603 18.0397 13.2247 17.9487 13.2695 17.8478C13.3143 17.7469 13.3386 17.6381 13.341 17.5277C13.3434 17.4173 13.3238 17.3076 13.2835 17.2048C13.2431 17.1021 13.1827 17.0084 13.1058 16.9292L6.56249 9.99998L13.1058 3.07248Z" fill="#FFFEF7"/>
</g>
</svg>
