<svg width="24" height="24" viewBox="0 0 24 24" fill="none" xmlns="http://www.w3.org/2000/svg">
<g id="bell (3) 1">
<path id="Vector" d="M21.2218 16.6765C19.8646 16.5934 18.8398 15.4856 18.8398 14.1284V9.4753C18.8398 5.54232 15.6546 2.32946 11.694 2.32946C7.73329 2.32946 4.54813 5.54232 4.54813 9.4753V14.1284C4.54813 15.4856 3.49564 16.5657 2.19388 16.6765H2.16618C2.0277 16.7042 2 16.8427 2 16.8427V19.0585C2 19.197 2.11079 19.3077 2.24927 19.3077H11.694H21.1387C21.2771 19.3077 21.3879 19.197 21.3879 19.0585V16.8427C21.3879 16.8704 21.3602 16.7042 21.2218 16.6765ZM2.83091 8.89366H2.33236C2.22158 8.89366 2.11079 8.78287 2.11079 8.67208C2.19388 5.45922 3.93879 2.55103 6.76389 1.0277C6.87468 0.972303 6.98547 1 7.04086 1.11079L7.26244 1.55394C7.31783 1.66473 7.26244 1.77552 7.17935 1.83091C4.65892 3.21576 3.08018 5.81929 2.99709 8.67208C3.02479 8.81057 2.9417 8.89366 2.83091 8.89366ZM20.6678 8.89366H21.1664C21.2771 8.89366 21.3879 8.78287 21.3879 8.67208C21.3048 5.45922 19.5599 2.55103 16.7348 1.0277C16.624 0.972303 16.5133 1 16.4579 1.11079L16.2363 1.55394C16.1809 1.66473 16.2363 1.77552 16.3194 1.83091C18.8398 3.21576 20.4185 5.81929 20.5016 8.67208C20.4739 8.81057 20.557 8.89366 20.6678 8.89366ZM15.073 20.4987C15.2392 20.4987 15.35 20.6926 15.2946 20.8588C14.7406 22.3821 13.3281 23.49 11.694 23.49C10.0598 23.49 8.67499 22.4098 8.09335 20.8588C8.03796 20.6926 8.14874 20.4987 8.31493 20.4987H15.073Z" fill="#FFBA53"/>
</g>
</svg>
