<svg width="15" height="15" viewBox="0 0 15 15" fill="none" xmlns="http://www.w3.org/2000/svg">
<g id="link 1">
<g id="Group">
<g id="Group_2">
<path id="Vector" d="M12.14 7.72472C12.14 8.44175 12.14 9.15878 12.14 9.87582C12.14 10.103 12.14 10.3302 12.14 10.5574C12.14 10.7136 12.1424 10.8689 12.1229 11.0243C12.1314 10.9607 12.14 10.8971 12.1485 10.8335C12.1245 11.0106 12.0784 11.1826 12.0104 11.3478C12.0345 11.2906 12.0586 11.2335 12.0827 11.1763C12.0147 11.337 11.9275 11.4876 11.8221 11.6267C11.8595 11.5782 11.8969 11.5298 11.9344 11.4814C11.8244 11.6236 11.6976 11.7504 11.5554 11.8604C11.6038 11.823 11.6522 11.7856 11.7007 11.7481C11.5616 11.8535 11.411 11.9408 11.2503 12.0087C11.3074 11.9846 11.3646 11.9605 11.4217 11.9364C11.2566 12.0044 11.0845 12.0505 10.9075 12.0746C10.9711 12.066 11.0348 12.0575 11.0983 12.0489C10.91 12.0725 10.7187 12.0661 10.5292 12.0661C10.2134 12.0661 9.89762 12.0661 9.58182 12.0661C8.65375 12.0661 7.72568 12.0661 6.79762 12.0661C6.06426 12.0661 5.33088 12.0661 4.59752 12.0661C4.42857 12.0661 4.25982 12.07 4.09174 12.0489C4.15535 12.0575 4.21895 12.066 4.28255 12.0746C4.10553 12.0505 3.93353 12.0044 3.76833 11.9364C3.82548 11.9605 3.88264 11.9846 3.93979 12.0087C3.77907 11.9408 3.62849 11.8535 3.48941 11.7481C3.53784 11.7856 3.58625 11.823 3.63468 11.8604C3.49246 11.7504 3.36566 11.6236 3.25571 11.4814C3.29312 11.5298 3.33054 11.5782 3.36795 11.6267C3.26254 11.4876 3.17534 11.337 3.10735 11.1763C3.13146 11.2335 3.15559 11.2906 3.1797 11.3478C3.1117 11.1826 3.06556 11.0105 3.04155 10.8335C3.05009 10.8972 3.05865 10.9608 3.06719 11.0243C3.04353 10.836 3.05003 10.6447 3.05003 10.4552C3.05003 10.1394 3.05003 9.82363 3.05003 9.50782C3.05003 8.57977 3.05003 7.65168 3.05003 6.72362C3.05003 5.99026 3.05003 5.25688 3.05003 4.52351C3.05003 4.35457 3.04608 4.1858 3.06719 4.01772C3.05865 4.08133 3.05009 4.14493 3.04155 4.20854C3.06556 4.03152 3.1117 3.85951 3.1797 3.69432C3.15559 3.75147 3.13146 3.80862 3.10735 3.86578C3.17534 3.70505 3.26254 3.55447 3.36795 3.41541C3.33054 3.46384 3.29314 3.51225 3.25571 3.56068C3.36566 3.41846 3.49246 3.29166 3.63468 3.18171C3.58625 3.21912 3.53784 3.25653 3.48941 3.29394C3.62849 3.18852 3.77906 3.10132 3.93979 3.03333C3.88264 3.05745 3.82548 3.08157 3.76833 3.10568C3.93354 3.03768 4.10554 2.99154 4.28255 2.96753C4.21895 2.97607 4.15535 2.98463 4.09174 2.99317C4.36904 2.95836 4.65733 2.97601 4.93605 2.97601C5.40026 2.97601 5.86447 2.97601 6.32868 2.97601C6.6829 2.97601 7.03713 2.97601 7.39136 2.97601C7.78264 2.97601 8.10914 2.64952 8.10914 2.25824C8.10914 1.86697 7.78264 1.54047 7.39136 1.54047C6.67434 1.54047 5.95731 1.54047 5.24028 1.54047C4.94936 1.54047 4.65846 1.54047 4.36754 1.54047C3.61316 1.54047 2.86359 1.85539 2.35138 2.41297C1.87778 2.92852 1.6145 3.60084 1.6145 4.30141C1.6145 4.48403 1.6145 4.66665 1.6145 4.84926C1.6145 5.68621 1.6145 6.52315 1.6145 7.36011C1.6145 8.236 1.6145 9.11189 1.6145 9.98777C1.6145 10.2191 1.6145 10.4504 1.6145 10.6817C1.6145 11.2023 1.73172 11.7093 1.99869 12.1601C2.21958 12.5331 2.53004 12.8392 2.8905 13.0765C3.07127 13.1955 3.27547 13.2819 3.47767 13.356C3.6886 13.4334 3.9095 13.4636 4.13182 13.4893C4.3105 13.5099 4.49466 13.5016 4.67431 13.5016C5.43933 13.5016 6.20434 13.5016 6.96935 13.5016C7.88658 13.5016 8.80382 13.5016 9.72106 13.5016C10.0155 13.5016 10.31 13.5016 10.6044 13.5016C10.9082 13.5016 11.206 13.4898 11.5051 13.4185C11.933 13.3165 12.311 13.0945 12.6453 12.8153C12.8119 12.6762 12.9427 12.5082 13.0733 12.3359C13.1706 12.2075 13.2506 12.0664 13.3147 11.9187C13.4035 11.7144 13.482 11.5144 13.5208 11.2946C13.5521 11.1173 13.5756 10.9356 13.5756 10.7551C13.5756 10.6671 13.5756 10.5791 13.5756 10.4912C13.5756 9.64991 13.5756 8.80866 13.5756 7.96742C13.5756 7.88651 13.5756 7.80559 13.5756 7.72469C13.5756 7.33342 13.2491 7.00692 12.8578 7.00692C12.4665 7.00692 12.14 7.33345 12.14 7.72472Z" fill="#875FD9"/>
</g>
</g>
<g id="Group_3">
<g id="Group_4">
<path id="Vector_2" d="M9.92017 2.97601C10.643 2.97601 11.3658 2.97601 12.0886 2.97601C12.3456 2.97601 12.6025 2.97601 12.8594 2.97601C13.2506 2.97601 13.5771 2.64951 13.5771 2.25824C13.5771 1.86697 13.2506 1.54047 12.8594 1.54047C12.1365 1.54047 11.4137 1.54047 10.6909 1.54047C10.434 1.54047 10.1771 1.54047 9.92017 1.54047C9.52889 1.54047 9.20239 1.86697 9.20239 2.25824C9.20239 2.64951 9.52889 2.97601 9.92017 2.97601Z" fill="#875FD9"/>
</g>
</g>
<g id="Group_5">
<g id="Group_6">
<path id="Vector_3" d="M13.5756 5.19745C13.5756 4.47462 13.5756 3.7518 13.5756 3.02895C13.5756 2.77205 13.5756 2.51514 13.5756 2.25824C13.5756 1.86697 13.2491 1.54047 12.8578 1.54047C12.4665 1.54047 12.14 1.86697 12.14 2.25824C12.14 2.98107 12.14 3.7039 12.14 4.42674C12.14 4.68364 12.14 4.94055 12.14 5.19745C12.14 5.58873 12.4665 5.91522 12.8578 5.91522C13.2491 5.91522 13.5756 5.58873 13.5756 5.19745Z" fill="#875FD9"/>
</g>
</g>
<g id="Group_7">
<g id="Group_8">
<path id="Vector_4" d="M8.11361 8.01798C8.41281 7.71877 8.71201 7.41958 9.0112 7.12037C9.65458 6.47701 10.2979 5.83363 10.9413 5.19026C11.5475 4.58406 12.1537 3.97788 12.7599 3.37169C12.9618 3.16976 13.1637 2.96785 13.3657 2.76592C13.6422 2.48939 13.6422 2.02738 13.3657 1.75083C13.0891 1.47429 12.6271 1.47429 12.3506 1.75083C12.0514 2.05004 11.7522 2.34923 11.453 2.64844C10.8096 3.2918 10.1662 3.93518 9.52286 4.57855C8.91666 5.18475 8.31047 5.79093 7.70428 6.39711C7.50237 6.59904 7.30044 6.80096 7.09851 7.00289C6.82198 7.27942 6.82198 7.74145 7.09851 8.01798C7.37505 8.29451 7.83707 8.29451 8.11361 8.01798Z" fill="#875FD9"/>
</g>
</g>
</g>
</svg>
