<svg width="18" height="18" viewBox="0 0 18 18" fill="none" xmlns="http://www.w3.org/2000/svg">
<g id="iconamoon:search">
<path id="Vector" d="M15.7499 15.75L12.4927 12.4927M12.4927 12.4927C13.0498 11.9356 13.4918 11.2741 13.7933 10.5461C14.0949 9.81816 14.2501 9.03792 14.2501 8.24997C14.2501 7.46202 14.0949 6.68178 13.7933 5.95381C13.4918 5.22584 13.0498 4.56439 12.4927 4.00722C11.9355 3.45006 11.274 3.00809 10.5461 2.70655C9.8181 2.40502 9.03786 2.24982 8.24991 2.24982C7.46196 2.24982 6.68172 2.40502 5.95375 2.70655C5.22578 3.00809 4.56433 3.45006 4.00716 4.00722C2.88191 5.13247 2.24976 6.65863 2.24976 8.24997C2.24976 9.84131 2.88191 11.3675 4.00716 12.4927C5.13241 13.618 6.65857 14.2501 8.24991 14.2501C9.84125 14.2501 11.3674 13.618 12.4927 12.4927Z" stroke="#A9A99F" stroke-width="2" stroke-linecap="round" stroke-linejoin="round"/>
</g>
</svg>
