<svg width="28" height="28" viewBox="0 0 28 28" fill="none" xmlns="http://www.w3.org/2000/svg">
<g id="basil:star-solid">
<path id="Vector" d="M15.0092 3.49533C14.9066 3.31853 14.7594 3.17178 14.5823 3.06977C14.4052 2.96776 14.2044 2.91406 14 2.91406C13.7956 2.91406 13.5948 2.96776 13.4177 3.06977C13.2406 3.17178 13.0934 3.31853 12.9909 3.49533L9.82452 8.95299C9.71485 9.14176 9.56419 9.30349 9.38367 9.42626C9.20316 9.54903 8.99738 9.6297 8.78152 9.66233L2.84669 10.5583C1.85035 10.71 1.50035 11.9677 2.27735 12.6117L6.69785 16.2727C7.10619 16.6122 7.29869 17.1477 7.19952 17.6692L6.04335 23.7417C6.00229 23.9573 6.02292 24.1802 6.10286 24.3847C6.18279 24.5891 6.3188 24.7669 6.49525 24.8975C6.67169 25.0282 6.88142 25.1063 7.10032 25.1231C7.31921 25.1399 7.5384 25.0946 7.73269 24.9923L13.321 22.05C13.5304 21.9398 13.7634 21.8823 14 21.8823C14.2366 21.8823 14.4696 21.9398 14.679 22.05L20.2674 24.9923C20.4616 25.0946 20.6808 25.1399 20.8997 25.1231C21.1186 25.1063 21.3283 25.0282 21.5048 24.8975C21.6812 24.7669 21.8172 24.5891 21.8972 24.3847C21.9771 24.1802 21.9977 23.9573 21.9567 23.7417L20.8005 17.6692C20.7515 17.4128 20.7722 17.148 20.8605 16.9023C20.9487 16.6567 21.1012 16.4392 21.3022 16.2727L25.7239 12.6105C26.4997 11.9688 26.1497 10.7088 25.1522 10.5583L19.2197 9.66233C19.0036 9.62986 18.7976 9.54927 18.6169 9.42649C18.4361 9.30371 18.2853 9.1419 18.1755 8.95299L15.0092 3.49533Z" fill="#FFC32A"/>
</g>
</svg>
